<?xml version="1.0" encoding="UTF-8"?>
<!DOCTYPE svg PUBLIC "-//W3C//DTD SVG 1.1//EN" "http://www.w3.org/Graphics/SVG/1.1/DTD/svg11.dtd">
<svg version="1.1" xmlns="http://www.w3.org/2000/svg" xmlns:xlink="http://www.w3.org/1999/xlink" x="0" y="0" width="500" height="800" viewBox="0, 0, 500, 800">
  <g id="Layer_1">
    <g id="Black_mono">
      <path d="M135.976,403 L35.995,402.987 L36.003,336 L135.984,336.012 M75.495,371.663 C77.548,371.663 78.382,374.043 78.382,378.895 C78.382,383.715 77.58,386.123 75.495,386.123 C73.41,386.123 72.576,383.747 72.576,378.895 C72.576,374.01 73.378,371.663 75.495,371.663 z M78.348,348.715 L67.771,348.715 L67.732,353.922 L72.639,353.922 L72.639,367.495 C69.013,368.824 66.803,372.834 66.803,378.895 C66.803,386.447 70.202,390.817 75.495,390.817 C80.787,390.817 84.155,386.479 84.155,379.119 C84.155,372.806 82.015,368.786 78.348,367.476 L78.348,348.715 z M118.088,371.663 C120.14,371.663 120.973,374.043 120.973,378.895 C120.973,383.715 120.172,386.123 118.088,386.123 C116.003,386.123 115.168,383.747 115.168,378.895 C115.168,374.01 115.97,371.663 118.088,371.663 z M120.941,348.715 L110.363,348.715 L110.323,353.922 L115.232,353.922 L115.232,367.495 C111.606,368.824 109.396,372.834 109.396,378.895 C109.396,386.447 112.794,390.817 118.088,390.817 C123.381,390.817 126.748,386.479 126.748,379.119 C126.748,372.806 124.608,368.786 120.941,367.476 L120.941,348.715 z M96.516,352.842 C98.569,352.842 99.402,355.22 99.402,360.073 C99.402,364.895 98.6,367.304 96.516,367.304 C94.43,367.304 93.596,364.925 93.596,360.073 C93.596,355.188 94.399,352.842 96.516,352.842 z M96.516,348.182 C91.224,348.183 87.824,352.554 87.824,360.073 C87.824,363.748 88.634,366.661 90.07,368.694 L90.039,372.475 L94.946,372.475 L94.946,390.021 L100.655,390.021 L100.655,370.887 C103.497,369.164 105.176,365.486 105.176,360.298 C105.176,352.488 101.906,348.183 96.516,348.182 z M53.923,352.842 C55.976,352.842 56.81,355.22 56.81,360.073 C56.81,364.895 56.008,367.304 53.923,367.304 C51.838,367.304 51.004,364.925 51.004,360.073 C51.004,355.188 51.806,352.842 53.923,352.842 z M53.923,348.182 C48.631,348.183 45.231,352.554 45.231,360.073 C45.231,363.748 46.041,366.661 47.478,368.694 L47.446,372.475 L52.353,372.475 L52.353,390.021 L58.063,390.021 L58.063,370.887 C60.904,369.164 62.583,365.486 62.583,360.298 C62.583,352.488 59.313,348.183 53.923,348.182 z" fill="#0B0B09"/>
      <g>
        <g>
          <path d="M158.461,363.217 C157.81,362.517 156.802,362.06 155.563,362.06 C154.324,362.06 153.283,362.517 152.631,363.217 C151.752,364.128 151.523,365.131 151.523,369.295 C151.523,373.457 151.752,374.459 152.631,375.371 C153.283,376.071 154.324,376.525 155.563,376.525 C156.802,376.525 157.81,376.071 158.461,375.371 C159.343,374.459 159.602,373.457 159.602,369.295 C159.602,365.131 159.343,364.128 158.461,363.217 M161.819,377.923 C160.19,379.444 158.201,380.294 155.563,380.294 C152.925,380.294 150.904,379.444 149.277,377.923 C146.93,375.736 146.995,373.031 146.995,369.295 C146.995,365.556 146.93,362.852 149.277,360.665 C150.904,359.145 152.925,358.294 155.563,358.294 C158.201,358.294 160.19,359.145 161.819,360.665 C164.163,362.852 164.132,365.556 164.132,369.295 C164.132,373.031 164.163,375.736 161.819,377.923" fill="#000000"/>
          <path d="M177.521,362.245 L173.285,362.245 L173.285,368.171 L177.521,368.171 C179.573,368.171 180.878,366.985 180.878,365.221 C180.878,363.46 179.573,362.245 177.521,362.245 M177.748,371.969 L173.285,371.969 L173.285,380.113 L168.757,380.113 L168.757,358.479 L177.748,358.479 C182.537,358.479 185.406,361.545 185.406,365.221 C185.406,368.899 182.537,371.969 177.748,371.969" fill="#000000"/>
          <path d="M189.217,380.113 L189.217,358.476 L204.496,358.476 L204.496,362.245 L193.745,362.245 L193.745,367.316 L202.9,367.316 L202.9,371.086 L193.745,371.086 L193.745,376.344 L204.496,376.344 L204.496,380.113 z" fill="#000000"/>
          <path d="M222.641,380.113 L213.456,366.831 L213.456,380.113 L208.928,380.113 L208.928,358.476 L212.967,358.476 L222.153,371.727 L222.153,358.476 L226.679,358.476 L226.679,380.113 z" fill="#000000"/>
        </g>
        <g>
          <path d="M245.533,362.245 L241.265,362.245 L241.265,367.957 L245.533,367.957 C247.521,367.957 248.823,366.773 248.823,365.1 C248.823,363.429 247.521,362.245 245.533,362.245 M249.05,380.111 L244.523,371.481 L241.265,371.481 L241.265,380.111 L236.737,380.111 L236.737,358.476 L245.827,358.476 C250.55,358.476 253.352,361.484 253.352,365.1 C253.352,368.14 251.364,370.024 249.118,370.785 L254.295,380.111 z" fill="#000000"/>
          <path d="M258.043,358.476 L262.57,358.476 L262.57,380.111 L258.043,380.111 z" fill="#000000"/>
          <path d="M282.281,377.834 C280.424,379.625 278.208,380.294 275.732,380.294 C273.192,380.294 271.107,379.442 269.478,377.924 C267.133,375.736 267.196,373.031 267.196,369.293 C267.196,365.556 267.133,362.85 269.478,360.665 C271.107,359.144 273.126,358.294 275.732,358.294 C281.109,358.294 283.845,361.577 284.464,365.221 L279.902,365.221 C279.382,363.184 278.046,362.062 275.732,362.062 C274.494,362.062 273.483,362.518 272.832,363.217 C271.954,364.129 271.725,365.133 271.725,369.293 C271.725,373.457 271.954,374.488 272.832,375.401 C273.483,376.101 274.494,376.525 275.732,376.525 C277.1,376.525 278.208,376.069 278.957,375.31 C279.708,374.521 280.002,373.546 280.002,372.423 L280.002,371.603 L275.732,371.603 L275.732,368.079 L284.496,368.079 L284.496,371.24 C284.496,374.369 283.91,376.254 282.281,377.834" fill="#000000"/>
          <path d="M301.47,380.111 L301.47,371.055 L293.618,371.055 L293.618,380.111 L289.09,380.111 L289.09,358.476 L293.618,358.476 L293.618,367.316 L301.47,367.316 L301.47,358.476 L306.001,358.476 L306.001,380.111 z" fill="#000000"/>
          <path d="M320.267,362.245 L320.267,380.111 L315.736,380.111 L315.736,362.245 L309.68,362.245 L309.68,358.476 L326.327,358.476 L326.327,362.245 z" fill="#000000"/>
          <path d="M336.395,380.294 C332.875,380.294 330.204,379.595 327.924,377.436 L330.855,374.703 C332.323,376.069 334.308,376.525 336.459,376.525 C339.131,376.525 340.564,375.586 340.564,373.852 C340.564,373.092 340.335,372.455 339.847,372.027 C339.391,371.634 338.869,371.42 337.794,371.269 L334.993,370.905 C333.004,370.631 331.541,370.052 330.498,369.111 C329.388,368.079 328.837,366.68 328.837,364.858 C328.837,360.999 331.897,358.294 336.914,358.294 C340.11,358.294 342.421,359.024 344.41,360.816 L341.542,363.46 C340.073,362.153 338.317,361.97 336.786,361.97 C334.373,361.97 333.203,363.217 333.203,364.706 C333.203,365.252 333.397,365.83 333.885,366.257 C334.342,366.65 335.091,366.985 336.034,367.106 L338.773,367.47 C340.887,367.745 342.223,368.291 343.204,369.141 C344.441,370.237 344.995,371.815 344.995,373.73 C344.995,377.924 341.246,380.294 336.395,380.294" fill="#000000"/>
        </g>
        <g>
          <path d="M367.489,377.835 C365.633,379.625 363.418,380.294 360.942,380.294 C358.401,380.294 356.316,379.442 354.687,377.924 C352.342,375.736 352.405,373.031 352.405,369.293 C352.405,365.556 352.342,362.852 354.687,360.663 C356.316,359.144 358.335,358.294 360.942,358.294 C366.318,358.294 369.054,361.576 369.672,365.221 L365.111,365.221 C364.59,363.187 363.255,362.064 360.942,362.064 C359.703,362.064 358.694,362.518 358.041,363.217 C357.162,364.128 356.933,365.129 356.933,369.293 C356.933,373.458 357.162,374.49 358.041,375.401 C358.694,376.1 359.703,376.525 360.942,376.525 C362.31,376.525 363.418,376.07 364.165,375.31 C364.917,374.52 365.21,373.548 365.21,372.423 L365.21,371.603 L360.942,371.603 L360.942,368.077 L369.705,368.077 L369.705,371.239 C369.705,374.369 369.118,376.255 367.489,377.835" fill="#000000"/>
          <path d="M383.095,362.244 L378.827,362.244 L378.827,367.957 L383.095,367.957 C385.081,367.957 386.385,366.773 386.385,365.1 C386.385,363.43 385.081,362.244 383.095,362.244 M386.614,380.111 L382.084,371.481 L378.827,371.481 L378.827,380.111 L374.299,380.111 L374.299,358.476 L383.389,358.476 C388.111,358.476 390.914,361.484 390.914,365.1 C390.914,368.141 388.925,370.024 386.678,370.785 L391.857,380.111 z" fill="#000000"/>
          <path d="M406.291,363.217 C405.64,362.518 404.629,362.062 403.391,362.062 C402.153,362.062 401.112,362.518 400.458,363.217 C399.578,364.126 399.35,365.129 399.35,369.295 C399.35,373.457 399.578,374.46 400.458,375.374 C401.112,376.07 402.153,376.524 403.391,376.524 C404.629,376.524 405.64,376.07 406.291,375.374 C407.171,374.46 407.431,373.457 407.431,369.295 C407.431,365.129 407.171,364.126 406.291,363.217 M409.646,377.923 C408.018,379.444 406.031,380.294 403.391,380.294 C400.752,380.294 398.733,379.444 397.103,377.923 C394.758,375.736 394.822,373.031 394.822,369.295 C394.822,365.556 394.758,362.852 397.103,360.663 C398.733,359.144 400.752,358.294 403.391,358.294 C406.031,358.294 408.018,359.144 409.646,360.663 C411.993,362.852 411.959,365.556 411.959,369.295 C411.959,373.031 411.993,375.736 409.646,377.923" fill="#000000"/>
          <path d="M424.762,380.294 C420.007,380.294 416.227,377.286 416.227,372.696 L416.227,358.476 L420.755,358.476 L420.755,372.546 C420.755,375.038 422.32,376.525 424.762,376.525 C427.205,376.525 428.802,375.038 428.802,372.546 L428.802,358.476 L433.298,358.476 L433.298,372.696 C433.298,377.286 429.519,380.294 424.762,380.294" fill="#000000"/>
          <path d="M447.112,362.244 L442.875,362.244 L442.875,368.169 L447.112,368.169 C449.165,368.169 450.467,366.985 450.467,365.221 C450.467,363.459 449.165,362.244 447.112,362.244 M447.34,371.968 L442.875,371.968 L442.875,380.111 L438.349,380.111 L438.349,358.476 L447.34,358.476 C452.128,358.476 454.995,361.545 454.995,365.221 C454.995,368.897 452.128,371.968 447.34,371.968" fill="#000000"/>
        </g>
      </g>
    </g>
    <g id="Greyscale_-_black_text">
      <g>
        <g>
          <path d="M158.461,591.217 C157.81,590.517 156.802,590.06 155.563,590.06 C154.324,590.06 153.283,590.517 152.631,591.217 C151.752,592.128 151.523,593.131 151.523,597.295 C151.523,601.457 151.752,602.459 152.631,603.371 C153.283,604.071 154.324,604.525 155.563,604.525 C156.802,604.525 157.81,604.071 158.461,603.371 C159.343,602.459 159.602,601.457 159.602,597.295 C159.602,593.131 159.343,592.128 158.461,591.217 M161.819,605.923 C160.19,607.444 158.201,608.294 155.563,608.294 C152.925,608.294 150.904,607.444 149.277,605.923 C146.93,603.736 146.995,601.031 146.995,597.295 C146.995,593.556 146.93,590.852 149.277,588.665 C150.904,587.145 152.925,586.294 155.563,586.294 C158.201,586.294 160.19,587.145 161.819,588.665 C164.163,590.852 164.132,593.556 164.132,597.295 C164.132,601.031 164.163,603.736 161.819,605.923" fill="#000000"/>
          <path d="M177.521,590.245 L173.285,590.245 L173.285,596.171 L177.521,596.171 C179.573,596.171 180.878,594.985 180.878,593.221 C180.878,591.46 179.573,590.245 177.521,590.245 M177.748,599.969 L173.285,599.969 L173.285,608.113 L168.757,608.113 L168.757,586.479 L177.748,586.479 C182.537,586.479 185.406,589.545 185.406,593.221 C185.406,596.899 182.537,599.969 177.748,599.969" fill="#000000"/>
          <path d="M189.217,608.113 L189.217,586.476 L204.496,586.476 L204.496,590.245 L193.745,590.245 L193.745,595.316 L202.9,595.316 L202.9,599.086 L193.745,599.086 L193.745,604.344 L204.496,604.344 L204.496,608.113 z" fill="#000000"/>
          <path d="M222.641,608.113 L213.456,594.831 L213.456,608.113 L208.928,608.113 L208.928,586.476 L212.967,586.476 L222.153,599.727 L222.153,586.476 L226.679,586.476 L226.679,608.113 z" fill="#000000"/>
        </g>
        <g>
          <path d="M245.533,590.245 L241.265,590.245 L241.265,595.957 L245.533,595.957 C247.521,595.957 248.823,594.773 248.823,593.1 C248.823,591.429 247.521,590.245 245.533,590.245 M249.05,608.111 L244.523,599.481 L241.265,599.481 L241.265,608.111 L236.737,608.111 L236.737,586.476 L245.827,586.476 C250.55,586.476 253.352,589.484 253.352,593.1 C253.352,596.14 251.364,598.024 249.118,598.785 L254.295,608.111 z" fill="#000000"/>
          <path d="M258.043,586.476 L262.57,586.476 L262.57,608.111 L258.043,608.111 z" fill="#000000"/>
          <path d="M282.281,605.834 C280.424,607.625 278.208,608.294 275.732,608.294 C273.192,608.294 271.107,607.442 269.478,605.924 C267.133,603.736 267.196,601.031 267.196,597.293 C267.196,593.556 267.133,590.85 269.478,588.665 C271.107,587.144 273.126,586.294 275.732,586.294 C281.109,586.294 283.845,589.577 284.464,593.221 L279.902,593.221 C279.382,591.184 278.046,590.062 275.732,590.062 C274.494,590.062 273.483,590.518 272.832,591.217 C271.954,592.129 271.725,593.133 271.725,597.293 C271.725,601.457 271.954,602.488 272.832,603.401 C273.483,604.101 274.494,604.525 275.732,604.525 C277.1,604.525 278.208,604.069 278.957,603.31 C279.708,602.521 280.002,601.546 280.002,600.423 L280.002,599.603 L275.732,599.603 L275.732,596.079 L284.496,596.079 L284.496,599.24 C284.496,602.369 283.91,604.254 282.281,605.834" fill="#000000"/>
          <path d="M301.47,608.111 L301.47,599.055 L293.618,599.055 L293.618,608.111 L289.09,608.111 L289.09,586.476 L293.618,586.476 L293.618,595.316 L301.47,595.316 L301.47,586.476 L306.001,586.476 L306.001,608.111 z" fill="#000000"/>
          <path d="M320.267,590.245 L320.267,608.111 L315.736,608.111 L315.736,590.245 L309.68,590.245 L309.68,586.476 L326.327,586.476 L326.327,590.245 z" fill="#000000"/>
          <path d="M336.395,608.294 C332.875,608.294 330.204,607.595 327.924,605.436 L330.855,602.703 C332.323,604.069 334.308,604.525 336.459,604.525 C339.131,604.525 340.564,603.586 340.564,601.852 C340.564,601.092 340.335,600.455 339.847,600.027 C339.391,599.634 338.869,599.42 337.794,599.269 L334.993,598.905 C333.004,598.631 331.541,598.052 330.498,597.111 C329.388,596.079 328.837,594.68 328.837,592.858 C328.837,588.999 331.897,586.294 336.914,586.294 C340.11,586.294 342.421,587.024 344.41,588.816 L341.542,591.46 C340.073,590.153 338.317,589.97 336.786,589.97 C334.373,589.97 333.203,591.217 333.203,592.706 C333.203,593.252 333.397,593.83 333.885,594.257 C334.342,594.65 335.091,594.985 336.034,595.106 L338.773,595.47 C340.887,595.745 342.223,596.291 343.204,597.141 C344.441,598.237 344.995,599.815 344.995,601.73 C344.995,605.924 341.246,608.294 336.395,608.294" fill="#000000"/>
        </g>
        <g>
          <path d="M367.489,605.835 C365.633,607.625 363.418,608.294 360.942,608.294 C358.401,608.294 356.316,607.442 354.687,605.924 C352.342,603.736 352.405,601.031 352.405,597.293 C352.405,593.556 352.342,590.852 354.687,588.663 C356.316,587.144 358.335,586.294 360.942,586.294 C366.318,586.294 369.054,589.576 369.672,593.221 L365.111,593.221 C364.59,591.187 363.255,590.064 360.942,590.064 C359.703,590.064 358.694,590.518 358.041,591.217 C357.162,592.128 356.933,593.129 356.933,597.293 C356.933,601.458 357.162,602.49 358.041,603.401 C358.694,604.1 359.703,604.525 360.942,604.525 C362.31,604.525 363.418,604.07 364.165,603.31 C364.917,602.52 365.21,601.548 365.21,600.423 L365.21,599.603 L360.942,599.603 L360.942,596.077 L369.705,596.077 L369.705,599.239 C369.705,602.369 369.118,604.255 367.489,605.835" fill="#000000"/>
          <path d="M383.095,590.244 L378.827,590.244 L378.827,595.957 L383.095,595.957 C385.081,595.957 386.385,594.773 386.385,593.1 C386.385,591.43 385.081,590.244 383.095,590.244 M386.614,608.111 L382.084,599.481 L378.827,599.481 L378.827,608.111 L374.299,608.111 L374.299,586.476 L383.389,586.476 C388.111,586.476 390.914,589.484 390.914,593.1 C390.914,596.141 388.925,598.024 386.678,598.785 L391.857,608.111 z" fill="#000000"/>
          <path d="M406.291,591.217 C405.64,590.518 404.629,590.062 403.391,590.062 C402.153,590.062 401.112,590.518 400.458,591.217 C399.578,592.126 399.35,593.129 399.35,597.295 C399.35,601.457 399.578,602.46 400.458,603.374 C401.112,604.07 402.153,604.524 403.391,604.524 C404.629,604.524 405.64,604.07 406.291,603.374 C407.171,602.46 407.431,601.457 407.431,597.295 C407.431,593.129 407.171,592.126 406.291,591.217 M409.646,605.923 C408.018,607.444 406.031,608.294 403.391,608.294 C400.752,608.294 398.733,607.444 397.103,605.923 C394.758,603.736 394.822,601.031 394.822,597.295 C394.822,593.556 394.758,590.852 397.103,588.663 C398.733,587.144 400.752,586.294 403.391,586.294 C406.031,586.294 408.018,587.144 409.646,588.663 C411.993,590.852 411.959,593.556 411.959,597.295 C411.959,601.031 411.993,603.736 409.646,605.923" fill="#000000"/>
          <path d="M424.762,608.294 C420.007,608.294 416.227,605.286 416.227,600.696 L416.227,586.476 L420.755,586.476 L420.755,600.546 C420.755,603.038 422.32,604.525 424.762,604.525 C427.205,604.525 428.802,603.038 428.802,600.546 L428.802,586.476 L433.298,586.476 L433.298,600.696 C433.298,605.286 429.519,608.294 424.762,608.294" fill="#000000"/>
          <path d="M447.112,590.244 L442.875,590.244 L442.875,596.169 L447.112,596.169 C449.165,596.169 450.467,594.985 450.467,593.221 C450.467,591.459 449.165,590.244 447.112,590.244 M447.34,599.968 L442.875,599.968 L442.875,608.111 L438.349,608.111 L438.349,586.476 L447.34,586.476 C452.128,586.476 454.995,589.545 454.995,593.221 C454.995,596.897 452.128,599.968 447.34,599.968" fill="#000000"/>
        </g>
      </g>
      <g>
        <path d="M36.003,564 L135.984,564.013 L135.976,631 L35.995,630.988 L36.003,564 z M120.941,576.716 L110.363,576.716 L110.323,581.922 L115.232,581.922 L115.232,595.495 C111.606,596.824 109.396,600.835 109.396,606.895 C109.396,614.448 112.794,618.818 118.088,618.818 C123.381,618.818 126.748,614.48 126.748,607.119 C126.748,600.807 124.608,596.786 120.941,595.477 L120.941,576.716 z M118.088,599.664 C120.14,599.664 120.973,602.043 120.973,606.895 C120.973,611.715 120.172,614.124 118.088,614.124 C116.003,614.124 115.168,611.748 115.168,606.895 C115.168,602.01 115.97,599.664 118.088,599.664 z M53.923,576.183 C48.631,576.183 45.231,580.554 45.231,588.073 C45.231,591.749 46.041,594.661 47.478,596.694 L47.446,600.475 L52.353,600.475 L52.353,618.021 L58.063,618.021 L58.063,598.888 C60.904,597.164 62.583,593.486 62.583,588.299 C62.583,580.489 59.313,576.183 53.923,576.183 z M53.923,580.843 C55.976,580.843 56.81,583.22 56.81,588.073 C56.81,592.895 56.008,595.305 53.923,595.305 C51.838,595.305 51.004,592.925 51.004,588.073 C51.004,583.188 51.806,580.843 53.923,580.843 z M96.516,576.183 C91.224,576.183 87.824,580.554 87.824,588.073 C87.824,591.749 88.634,594.661 90.07,596.694 L90.039,600.475 L94.946,600.475 L94.946,618.021 L100.655,618.021 L100.655,598.888 C103.497,597.164 105.176,593.486 105.176,588.299 C105.176,580.489 101.906,576.183 96.516,576.183 z M96.516,580.843 C98.569,580.843 99.402,583.22 99.402,588.073 C99.402,592.895 98.6,595.305 96.516,595.305 C94.43,595.305 93.596,592.925 93.596,588.073 C93.596,583.188 94.399,580.843 96.516,580.843 z" fill="#0B0B09"/>
        <path d="M75.246,614.021 C73.141,614.021 72.298,611.622 72.298,606.721 C72.298,601.786 73.108,599.416 75.246,599.416 C77.32,599.416 78.161,601.82 78.161,606.721 C78.161,611.59 77.352,614.021 75.246,614.021 M78.129,595.187 L78.129,576.237 L67.444,576.237 L67.404,581.495 L72.362,581.495 L72.362,595.206 C68.699,596.547 66.467,600.599 66.467,606.721 C66.467,614.349 69.9,618.763 75.246,618.763 C80.593,618.763 83.995,614.382 83.995,606.947 C83.995,600.57 81.832,596.51 78.129,595.187" fill="#777776"/>
      </g>
    </g>
    <g id="Greyscale_-_white_text">
      <g>
        <g>
          <path d="M158.461,687.217 C157.81,686.517 156.802,686.06 155.563,686.06 C154.324,686.06 153.283,686.517 152.631,687.217 C151.752,688.128 151.523,689.131 151.523,693.295 C151.523,697.457 151.752,698.459 152.631,699.371 C153.283,700.071 154.324,700.525 155.563,700.525 C156.802,700.525 157.81,700.071 158.461,699.371 C159.343,698.459 159.602,697.457 159.602,693.295 C159.602,689.131 159.343,688.128 158.461,687.217 M161.819,701.923 C160.19,703.444 158.201,704.294 155.563,704.294 C152.925,704.294 150.905,703.444 149.277,701.923 C146.93,699.736 146.995,697.031 146.995,693.295 C146.995,689.556 146.93,686.852 149.277,684.665 C150.905,683.145 152.925,682.294 155.563,682.294 C158.201,682.294 160.19,683.145 161.819,684.665 C164.163,686.852 164.132,689.556 164.132,693.295 C164.132,697.031 164.163,699.736 161.819,701.923" fill="#FFFFFF"/>
          <path d="M177.521,686.245 L173.285,686.245 L173.285,692.171 L177.521,692.171 C179.573,692.171 180.878,690.985 180.878,689.221 C180.878,687.46 179.573,686.245 177.521,686.245 M177.748,695.969 L173.285,695.969 L173.285,704.113 L168.757,704.113 L168.757,682.479 L177.748,682.479 C182.537,682.479 185.406,685.545 185.406,689.221 C185.406,692.899 182.537,695.969 177.748,695.969" fill="#FFFFFF"/>
          <path d="M189.217,704.113 L189.217,682.476 L204.497,682.476 L204.497,686.245 L193.745,686.245 L193.745,691.316 L202.9,691.316 L202.9,695.086 L193.745,695.086 L193.745,700.344 L204.497,700.344 L204.497,704.113 z" fill="#FFFFFF"/>
          <path d="M222.641,704.113 L213.456,690.831 L213.456,704.113 L208.928,704.113 L208.928,682.476 L212.967,682.476 L222.153,695.727 L222.153,682.476 L226.679,682.476 L226.679,704.113 z" fill="#FFFFFF"/>
        </g>
        <g>
          <path d="M245.533,686.245 L241.265,686.245 L241.265,691.957 L245.533,691.957 C247.521,691.957 248.823,690.773 248.823,689.1 C248.823,687.429 247.521,686.245 245.533,686.245 M249.05,704.111 L244.524,695.481 L241.265,695.481 L241.265,704.111 L236.737,704.111 L236.737,682.476 L245.827,682.476 C250.55,682.476 253.352,685.484 253.352,689.1 C253.352,692.14 251.364,694.024 249.118,694.785 L254.295,704.111 z" fill="#FFFFFF"/>
          <path d="M258.043,682.476 L262.57,682.476 L262.57,704.111 L258.043,704.111 z" fill="#FFFFFF"/>
          <path d="M282.281,701.834 C280.424,703.625 278.208,704.294 275.732,704.294 C273.192,704.294 271.107,703.442 269.478,701.924 C267.133,699.736 267.196,697.031 267.196,693.293 C267.196,689.556 267.133,686.85 269.478,684.665 C271.107,683.144 273.126,682.294 275.732,682.294 C281.11,682.294 283.845,685.577 284.464,689.221 L279.902,689.221 C279.382,687.184 278.046,686.062 275.732,686.062 C274.494,686.062 273.483,686.518 272.832,687.217 C271.954,688.129 271.725,689.133 271.725,693.293 C271.725,697.457 271.954,698.488 272.832,699.401 C273.483,700.101 274.494,700.525 275.732,700.525 C277.1,700.525 278.208,700.069 278.957,699.31 C279.708,698.521 280.002,697.546 280.002,696.423 L280.002,695.603 L275.732,695.603 L275.732,692.079 L284.496,692.079 L284.496,695.24 C284.496,698.369 283.91,700.254 282.281,701.834" fill="#FFFFFF"/>
          <path d="M301.47,704.111 L301.47,695.055 L293.618,695.055 L293.618,704.111 L289.09,704.111 L289.09,682.476 L293.618,682.476 L293.618,691.316 L301.47,691.316 L301.47,682.476 L306.001,682.476 L306.001,704.111 z" fill="#FFFFFF"/>
          <path d="M320.267,686.245 L320.267,704.111 L315.736,704.111 L315.736,686.245 L309.68,686.245 L309.68,682.476 L326.327,682.476 L326.327,686.245 z" fill="#FFFFFF"/>
          <path d="M336.396,704.294 C332.876,704.294 330.204,703.595 327.924,701.436 L330.855,698.703 C332.323,700.069 334.308,700.525 336.459,700.525 C339.131,700.525 340.564,699.586 340.564,697.852 C340.564,697.092 340.335,696.455 339.847,696.027 C339.391,695.634 338.869,695.42 337.794,695.269 L334.993,694.905 C333.004,694.631 331.541,694.052 330.498,693.111 C329.388,692.079 328.837,690.68 328.837,688.858 C328.837,684.999 331.897,682.294 336.914,682.294 C340.11,682.294 342.421,683.024 344.41,684.816 L341.542,687.46 C340.073,686.153 338.317,685.97 336.786,685.97 C334.373,685.97 333.203,687.217 333.203,688.706 C333.203,689.252 333.397,689.83 333.885,690.257 C334.342,690.65 335.091,690.985 336.034,691.106 L338.773,691.47 C340.887,691.745 342.223,692.291 343.204,693.141 C344.441,694.237 344.995,695.815 344.995,697.73 C344.995,701.924 341.246,704.294 336.396,704.294" fill="#FFFFFF"/>
        </g>
        <g>
          <path d="M367.489,701.835 C365.633,703.625 363.418,704.294 360.942,704.294 C358.401,704.294 356.316,703.442 354.687,701.924 C352.342,699.736 352.405,697.031 352.405,693.293 C352.405,689.556 352.342,686.852 354.687,684.663 C356.316,683.144 358.335,682.294 360.942,682.294 C366.318,682.294 369.054,685.576 369.672,689.221 L365.111,689.221 C364.59,687.187 363.255,686.064 360.942,686.064 C359.703,686.064 358.694,686.518 358.041,687.217 C357.162,688.128 356.933,689.129 356.933,693.293 C356.933,697.458 357.162,698.49 358.041,699.401 C358.694,700.1 359.703,700.525 360.942,700.525 C362.31,700.525 363.418,700.07 364.165,699.31 C364.917,698.52 365.21,697.548 365.21,696.423 L365.21,695.603 L360.942,695.603 L360.942,692.077 L369.705,692.077 L369.705,695.239 C369.705,698.369 369.118,700.255 367.489,701.835" fill="#FFFFFF"/>
          <path d="M383.095,686.244 L378.827,686.244 L378.827,691.957 L383.095,691.957 C385.081,691.957 386.385,690.773 386.385,689.1 C386.385,687.43 385.081,686.244 383.095,686.244 M386.614,704.111 L382.084,695.481 L378.827,695.481 L378.827,704.111 L374.299,704.111 L374.299,682.476 L383.389,682.476 C388.111,682.476 390.914,685.484 390.914,689.1 C390.914,692.141 388.925,694.024 386.678,694.785 L391.857,704.111 z" fill="#FFFFFF"/>
          <path d="M406.291,687.217 C405.64,686.518 404.629,686.062 403.391,686.062 C402.153,686.062 401.112,686.518 400.458,687.217 C399.578,688.126 399.35,689.129 399.35,693.295 C399.35,697.457 399.578,698.46 400.458,699.374 C401.112,700.07 402.153,700.524 403.391,700.524 C404.629,700.524 405.64,700.07 406.291,699.374 C407.171,698.46 407.431,697.457 407.431,693.295 C407.431,689.129 407.171,688.126 406.291,687.217 M409.646,701.923 C408.018,703.444 406.031,704.294 403.391,704.294 C400.752,704.294 398.733,703.444 397.103,701.923 C394.758,699.736 394.822,697.031 394.822,693.295 C394.822,689.556 394.758,686.852 397.103,684.663 C398.733,683.144 400.752,682.294 403.391,682.294 C406.031,682.294 408.018,683.144 409.646,684.663 C411.993,686.852 411.959,689.556 411.959,693.295 C411.959,697.031 411.993,699.736 409.646,701.923" fill="#FFFFFF"/>
          <path d="M424.762,704.294 C420.007,704.294 416.227,701.286 416.227,696.696 L416.227,682.476 L420.755,682.476 L420.755,696.546 C420.755,699.038 422.32,700.525 424.762,700.525 C427.205,700.525 428.802,699.038 428.802,696.546 L428.802,682.476 L433.298,682.476 L433.298,696.696 C433.298,701.286 429.519,704.294 424.762,704.294" fill="#FFFFFF"/>
          <path d="M447.112,686.244 L442.875,686.244 L442.875,692.169 L447.112,692.169 C449.165,692.169 450.467,690.985 450.467,689.221 C450.467,687.459 449.165,686.244 447.112,686.244 M447.34,695.968 L442.875,695.968 L442.875,704.111 L438.349,704.111 L438.349,682.476 L447.34,682.476 C452.128,682.476 454.995,685.545 454.995,689.221 C454.995,692.897 452.128,695.968 447.34,695.968" fill="#FFFFFF"/>
        </g>
      </g>
      <g>
        <path d="M36.003,660 L135.985,660.012 L135.977,727 L35.995,726.987 L36.003,660 z M78.349,672.715 L67.771,672.715 L67.732,677.922 L72.639,677.922 L72.639,691.495 C69.013,692.824 66.803,696.834 66.803,702.895 C66.803,710.447 70.202,714.817 75.495,714.817 C80.787,714.817 84.155,710.479 84.155,703.119 C84.155,696.806 82.015,692.786 78.349,691.476 L78.349,672.715 z M75.495,695.663 C77.548,695.663 78.382,698.043 78.382,702.895 C78.382,707.715 77.58,710.123 75.495,710.123 C73.41,710.123 72.576,707.747 72.576,702.895 C72.576,698.01 73.378,695.663 75.495,695.663 z" fill="#FFFFFF"/>
        <path d="M118.247,710.022 C116.141,710.022 115.298,707.622 115.298,702.721 C115.298,697.786 116.108,695.416 118.247,695.416 C120.32,695.416 121.161,697.819 121.161,702.721 C121.161,707.589 120.352,710.022 118.247,710.022 M121.129,691.186 L121.129,672.236 L110.445,672.236 L110.404,677.495 L115.362,677.495 L115.362,691.206 C111.7,692.548 109.467,696.599 109.467,702.721 C109.467,710.349 112.9,714.764 118.247,714.764 C123.593,714.764 126.995,710.382 126.995,702.947 C126.995,696.57 124.832,692.509 121.129,691.186" fill="#777776"/>
        <path d="M96.248,676.446 C98.321,676.446 99.163,678.847 99.163,683.749 C99.163,688.62 98.352,691.054 96.248,691.054 C94.141,691.054 93.298,688.65 93.298,683.749 C93.298,678.815 94.109,676.446 96.248,676.446 M104.995,683.977 C104.995,676.088 101.692,671.739 96.248,671.739 C90.901,671.739 87.468,676.154 87.468,683.749 C87.468,687.462 88.285,690.404 89.736,692.457 L89.705,696.276 L94.661,696.276 L94.661,714 L100.428,714 L100.428,694.673 C103.299,692.932 104.995,689.217 104.995,683.977" fill="#777776"/>
        <path d="M54.248,676.446 C56.321,676.446 57.163,678.847 57.163,683.749 C57.163,688.62 56.353,691.054 54.248,691.054 C52.141,691.054 51.299,688.65 51.299,683.749 C51.299,678.815 52.109,676.446 54.248,676.446 M62.995,683.977 C62.995,676.088 59.692,671.739 54.248,671.739 C48.902,671.739 45.467,676.154 45.467,683.749 C45.467,687.462 46.286,690.404 47.737,692.457 L47.705,696.276 L52.662,696.276 L52.662,714 L58.429,714 L58.429,694.673 C61.299,692.932 62.995,689.217 62.995,683.977" fill="#777776"/>
      </g>
    </g>
    <g id="White_mono">
      <path d="M135.976,511 L35.995,510.987 L36.003,444 L135.984,444.012 M75.495,479.663 C77.548,479.663 78.382,482.043 78.382,486.895 C78.382,491.715 77.58,494.123 75.495,494.123 C73.41,494.123 72.576,491.747 72.576,486.895 C72.576,482.01 73.378,479.663 75.495,479.663 z M78.348,456.715 L67.771,456.715 L67.732,461.922 L72.639,461.922 L72.639,475.495 C69.013,476.824 66.803,480.834 66.803,486.895 C66.803,494.447 70.202,498.817 75.495,498.817 C80.787,498.817 84.155,494.479 84.155,487.119 C84.155,480.806 82.015,476.786 78.348,475.476 L78.348,456.715 z M118.088,479.663 C120.14,479.663 120.973,482.043 120.973,486.895 C120.973,491.715 120.172,494.123 118.088,494.123 C116.003,494.123 115.168,491.747 115.168,486.895 C115.168,482.01 115.97,479.663 118.088,479.663 z M120.941,456.715 L110.363,456.715 L110.323,461.922 L115.232,461.922 L115.232,475.495 C111.606,476.824 109.396,480.834 109.396,486.895 C109.396,494.447 112.794,498.817 118.088,498.817 C123.381,498.817 126.748,494.479 126.748,487.119 C126.748,480.806 124.608,476.786 120.941,475.476 L120.941,456.715 z M96.516,460.842 C98.569,460.842 99.402,463.22 99.402,468.073 C99.402,472.895 98.6,475.304 96.516,475.304 C94.43,475.304 93.596,472.925 93.596,468.073 C93.596,463.188 94.399,460.842 96.516,460.842 z M96.516,456.182 C91.224,456.183 87.824,460.554 87.824,468.073 C87.824,471.748 88.634,474.661 90.07,476.693 L90.039,480.475 L94.946,480.475 L94.946,498.021 L100.655,498.021 L100.655,478.887 C103.497,477.164 105.176,473.486 105.176,468.298 C105.176,460.488 101.906,456.183 96.516,456.182 z M53.923,460.842 C55.976,460.842 56.81,463.22 56.81,468.073 C56.81,472.895 56.008,475.304 53.923,475.304 C51.838,475.304 51.004,472.925 51.004,468.073 C51.004,463.188 51.806,460.842 53.923,460.842 z M53.923,456.182 C48.631,456.183 45.231,460.554 45.231,468.073 C45.231,471.748 46.041,474.661 47.478,476.693 L47.446,480.475 L52.353,480.475 L52.353,498.021 L58.063,498.021 L58.063,478.887 C60.904,477.164 62.583,473.486 62.583,468.298 C62.583,460.488 59.313,456.183 53.923,456.182 z" fill="#FAFAF7"/>
      <g>
        <g>
          <path d="M158.461,471.217 C157.81,470.517 156.802,470.06 155.563,470.06 C154.324,470.06 153.283,470.517 152.631,471.217 C151.752,472.128 151.523,473.131 151.523,477.295 C151.523,481.457 151.752,482.459 152.631,483.371 C153.283,484.071 154.324,484.525 155.563,484.525 C156.802,484.525 157.81,484.071 158.461,483.371 C159.343,482.459 159.602,481.457 159.602,477.295 C159.602,473.131 159.343,472.128 158.461,471.217 M161.819,485.923 C160.19,487.444 158.201,488.294 155.563,488.294 C152.925,488.294 150.904,487.444 149.277,485.923 C146.93,483.736 146.995,481.031 146.995,477.295 C146.995,473.556 146.93,470.852 149.277,468.665 C150.904,467.145 152.925,466.294 155.563,466.294 C158.201,466.294 160.19,467.145 161.819,468.665 C164.163,470.852 164.132,473.556 164.132,477.295 C164.132,481.031 164.163,483.736 161.819,485.923" fill="#FAFAF7"/>
          <path d="M177.521,470.245 L173.285,470.245 L173.285,476.171 L177.521,476.171 C179.573,476.171 180.878,474.985 180.878,473.221 C180.878,471.46 179.573,470.245 177.521,470.245 M177.748,479.969 L173.285,479.969 L173.285,488.113 L168.757,488.113 L168.757,466.479 L177.748,466.479 C182.537,466.479 185.406,469.545 185.406,473.221 C185.406,476.899 182.537,479.969 177.748,479.969" fill="#FAFAF7"/>
          <path d="M189.217,488.113 L189.217,466.476 L204.496,466.476 L204.496,470.245 L193.745,470.245 L193.745,475.316 L202.9,475.316 L202.9,479.086 L193.745,479.086 L193.745,484.344 L204.496,484.344 L204.496,488.113 z" fill="#FAFAF7"/>
          <path d="M222.641,488.113 L213.456,474.831 L213.456,488.113 L208.928,488.113 L208.928,466.476 L212.967,466.476 L222.153,479.727 L222.153,466.476 L226.679,466.476 L226.679,488.113 z" fill="#FAFAF7"/>
        </g>
        <g>
          <path d="M245.533,470.245 L241.265,470.245 L241.265,475.957 L245.533,475.957 C247.521,475.957 248.823,474.773 248.823,473.1 C248.823,471.429 247.521,470.245 245.533,470.245 M249.05,488.111 L244.523,479.481 L241.265,479.481 L241.265,488.111 L236.737,488.111 L236.737,466.476 L245.827,466.476 C250.55,466.476 253.352,469.484 253.352,473.1 C253.352,476.14 251.364,478.024 249.118,478.785 L254.295,488.111 z" fill="#FAFAF7"/>
          <path d="M258.043,466.476 L262.57,466.476 L262.57,488.111 L258.043,488.111 z" fill="#FAFAF7"/>
          <path d="M282.281,485.834 C280.424,487.625 278.208,488.294 275.732,488.294 C273.192,488.294 271.107,487.442 269.478,485.924 C267.133,483.736 267.196,481.031 267.196,477.293 C267.196,473.556 267.133,470.85 269.478,468.665 C271.107,467.144 273.126,466.294 275.732,466.294 C281.109,466.294 283.845,469.577 284.464,473.221 L279.902,473.221 C279.382,471.184 278.046,470.062 275.732,470.062 C274.494,470.062 273.483,470.518 272.832,471.217 C271.954,472.129 271.725,473.133 271.725,477.293 C271.725,481.457 271.954,482.488 272.832,483.401 C273.483,484.101 274.494,484.525 275.732,484.525 C277.1,484.525 278.208,484.069 278.957,483.31 C279.708,482.521 280.002,481.546 280.002,480.423 L280.002,479.603 L275.732,479.603 L275.732,476.079 L284.496,476.079 L284.496,479.24 C284.496,482.369 283.91,484.254 282.281,485.834" fill="#FAFAF7"/>
          <path d="M301.47,488.111 L301.47,479.055 L293.618,479.055 L293.618,488.111 L289.09,488.111 L289.09,466.476 L293.618,466.476 L293.618,475.316 L301.47,475.316 L301.47,466.476 L306.001,466.476 L306.001,488.111 z" fill="#FAFAF7"/>
          <path d="M320.267,470.245 L320.267,488.111 L315.736,488.111 L315.736,470.245 L309.68,470.245 L309.68,466.476 L326.327,466.476 L326.327,470.245 z" fill="#FAFAF7"/>
          <path d="M336.395,488.294 C332.875,488.294 330.204,487.595 327.924,485.436 L330.855,482.703 C332.323,484.069 334.308,484.525 336.459,484.525 C339.131,484.525 340.564,483.586 340.564,481.852 C340.564,481.092 340.335,480.455 339.847,480.027 C339.391,479.634 338.869,479.42 337.794,479.269 L334.993,478.905 C333.004,478.631 331.541,478.052 330.498,477.111 C329.388,476.079 328.837,474.68 328.837,472.858 C328.837,468.999 331.897,466.294 336.914,466.294 C340.11,466.294 342.421,467.024 344.41,468.816 L341.542,471.46 C340.073,470.153 338.317,469.97 336.786,469.97 C334.373,469.97 333.203,471.217 333.203,472.706 C333.203,473.252 333.397,473.83 333.885,474.257 C334.342,474.65 335.091,474.985 336.034,475.106 L338.773,475.47 C340.887,475.745 342.223,476.291 343.204,477.141 C344.441,478.237 344.995,479.815 344.995,481.73 C344.995,485.924 341.246,488.294 336.395,488.294" fill="#FAFAF7"/>
        </g>
        <g>
          <path d="M367.489,485.835 C365.633,487.625 363.418,488.294 360.942,488.294 C358.401,488.294 356.316,487.442 354.687,485.924 C352.342,483.736 352.405,481.031 352.405,477.293 C352.405,473.556 352.342,470.852 354.687,468.663 C356.316,467.144 358.335,466.294 360.942,466.294 C366.318,466.294 369.054,469.576 369.672,473.221 L365.111,473.221 C364.59,471.187 363.255,470.064 360.942,470.064 C359.703,470.064 358.694,470.518 358.041,471.217 C357.162,472.128 356.933,473.129 356.933,477.293 C356.933,481.458 357.162,482.49 358.041,483.401 C358.694,484.1 359.703,484.525 360.942,484.525 C362.31,484.525 363.418,484.07 364.165,483.31 C364.917,482.52 365.21,481.548 365.21,480.423 L365.21,479.603 L360.942,479.603 L360.942,476.077 L369.705,476.077 L369.705,479.239 C369.705,482.369 369.118,484.255 367.489,485.835" fill="#FAFAF7"/>
          <path d="M383.095,470.244 L378.827,470.244 L378.827,475.957 L383.095,475.957 C385.081,475.957 386.385,474.773 386.385,473.1 C386.385,471.43 385.081,470.244 383.095,470.244 M386.614,488.111 L382.084,479.481 L378.827,479.481 L378.827,488.111 L374.299,488.111 L374.299,466.476 L383.389,466.476 C388.111,466.476 390.914,469.484 390.914,473.1 C390.914,476.141 388.925,478.024 386.678,478.785 L391.857,488.111 z" fill="#FAFAF7"/>
          <path d="M406.291,471.217 C405.64,470.518 404.629,470.062 403.391,470.062 C402.153,470.062 401.112,470.518 400.458,471.217 C399.578,472.126 399.35,473.129 399.35,477.295 C399.35,481.457 399.578,482.46 400.458,483.374 C401.112,484.07 402.153,484.524 403.391,484.524 C404.629,484.524 405.64,484.07 406.291,483.374 C407.171,482.46 407.431,481.457 407.431,477.295 C407.431,473.129 407.171,472.126 406.291,471.217 M409.646,485.923 C408.018,487.444 406.031,488.294 403.391,488.294 C400.752,488.294 398.733,487.444 397.103,485.923 C394.758,483.736 394.822,481.031 394.822,477.295 C394.822,473.556 394.758,470.852 397.103,468.663 C398.733,467.144 400.752,466.294 403.391,466.294 C406.031,466.294 408.018,467.144 409.646,468.663 C411.993,470.852 411.959,473.556 411.959,477.295 C411.959,481.031 411.993,483.736 409.646,485.923" fill="#FAFAF7"/>
          <path d="M424.762,488.294 C420.007,488.294 416.227,485.286 416.227,480.696 L416.227,466.476 L420.755,466.476 L420.755,480.546 C420.755,483.038 422.32,484.525 424.762,484.525 C427.205,484.525 428.802,483.038 428.802,480.546 L428.802,466.476 L433.298,466.476 L433.298,480.696 C433.298,485.286 429.519,488.294 424.762,488.294" fill="#FAFAF7"/>
          <path d="M447.112,470.244 L442.875,470.244 L442.875,476.169 L447.112,476.169 C449.165,476.169 450.467,474.985 450.467,473.221 C450.467,471.459 449.165,470.244 447.112,470.244 M447.34,479.968 L442.875,479.968 L442.875,488.111 L438.349,488.111 L438.349,466.476 L447.34,466.476 C452.128,466.476 454.995,469.545 454.995,473.221 C454.995,476.897 452.128,479.968 447.34,479.968" fill="#FAFAF7"/>
        </g>
      </g>
    </g>
    <g id="Red_logo_-_black_text">
      <g>
        <path d="M135.982,211 L36,210.987 L36.008,144 L135.99,144.013 z" fill="#0B0B09"/>
        <g>
          <path d="M53.741,160.841 C55.793,160.841 56.627,163.22 56.627,168.072 C56.627,172.894 55.826,175.303 53.741,175.303 C51.655,175.303 50.821,172.925 50.821,168.072 C50.821,163.188 51.624,160.841 53.741,160.841 M62.401,168.298 C62.401,160.487 59.13,156.182 53.741,156.182 C48.449,156.182 45.049,160.553 45.049,168.072 C45.049,171.748 45.859,174.66 47.296,176.693 L47.264,180.474 L52.17,180.474 L52.17,198.02 L57.881,198.02 L57.881,178.886 C60.722,177.164 62.401,173.485 62.401,168.298" fill="#777776"/>
          <path d="M75.312,194.122 C73.228,194.122 72.394,191.747 72.394,186.894 C72.394,182.01 73.195,179.663 75.312,179.663 C77.365,179.663 78.2,182.042 78.2,186.894 C78.2,191.714 77.397,194.122 75.312,194.122 M78.166,175.476 L78.166,156.715 L67.589,156.715 L67.549,161.921 L72.456,161.921 L72.456,175.495 C68.83,176.824 66.62,180.833 66.62,186.894 C66.62,194.447 70.019,198.816 75.312,198.816 C80.604,198.816 83.972,194.479 83.972,187.118 C83.972,180.806 81.832,176.785 78.166,175.476" fill="#D9272A"/>
          <path d="M96.333,160.841 C98.386,160.841 99.22,163.22 99.22,168.072 C99.22,172.894 98.417,175.303 96.333,175.303 C94.247,175.303 93.414,172.925 93.414,168.072 C93.414,163.188 94.217,160.841 96.333,160.841 M104.993,168.298 C104.993,160.487 101.723,156.182 96.333,156.182 C91.04,156.182 87.642,160.553 87.642,168.072 C87.642,171.748 88.451,174.66 89.887,176.693 L89.856,180.474 L94.763,180.474 L94.763,198.02 L100.472,198.02 L100.472,178.886 C103.314,177.164 104.993,173.485 104.993,168.298" fill="#777776"/>
          <path d="M117.905,194.122 C115.82,194.122 114.985,191.747 114.985,186.894 C114.985,182.01 115.788,179.663 117.905,179.663 C119.957,179.663 120.791,182.042 120.791,186.894 C120.791,191.714 119.99,194.122 117.905,194.122 M120.759,175.476 L120.759,156.715 L110.181,156.715 L110.141,161.921 L115.05,161.921 L115.05,175.495 C111.424,176.824 109.213,180.833 109.213,186.894 C109.213,194.447 112.612,198.816 117.905,198.816 C123.198,198.816 126.566,194.479 126.566,187.118 C126.566,180.806 124.425,176.785 120.759,175.476" fill="#777776"/>
        </g>
      </g>
      <g>
        <g>
          <path d="M158.456,171.217 C157.805,170.517 156.797,170.06 155.558,170.06 C154.318,170.06 153.278,170.517 152.626,171.217 C151.747,172.128 151.518,173.131 151.518,177.295 C151.518,181.457 151.747,182.459 152.626,183.371 C153.278,184.071 154.318,184.525 155.558,184.525 C156.797,184.525 157.805,184.071 158.456,183.371 C159.338,182.459 159.597,181.457 159.597,177.295 C159.597,173.131 159.338,172.128 158.456,171.217 M161.814,185.923 C160.185,187.444 158.196,188.294 155.558,188.294 C152.919,188.294 150.899,187.444 149.271,185.923 C146.925,183.736 146.99,181.031 146.99,177.295 C146.99,173.557 146.925,170.852 149.271,168.665 C150.899,167.145 152.919,166.294 155.558,166.294 C158.196,166.294 160.185,167.145 161.814,168.665 C164.158,170.852 164.127,173.557 164.127,177.295 C164.127,181.031 164.158,183.736 161.814,185.923" fill="#000000"/>
          <path d="M177.515,170.245 L173.28,170.245 L173.28,176.171 L177.515,176.171 C179.568,176.171 180.872,174.985 180.872,173.221 C180.872,171.46 179.568,170.245 177.515,170.245 M177.743,179.969 L173.28,179.969 L173.28,188.113 L168.752,188.113 L168.752,166.479 L177.743,166.479 C182.531,166.479 185.4,169.545 185.4,173.221 C185.4,176.899 182.531,179.969 177.743,179.969" fill="#000000"/>
          <path d="M189.212,188.113 L189.212,166.476 L204.491,166.476 L204.491,170.245 L193.74,170.245 L193.74,175.317 L202.894,175.317 L202.894,179.086 L193.74,179.086 L193.74,184.344 L204.491,184.344 L204.491,188.113 z" fill="#000000"/>
          <path d="M222.636,188.113 L213.451,174.831 L213.451,188.113 L208.922,188.113 L208.922,166.476 L212.961,166.476 L222.148,179.727 L222.148,166.476 L226.674,166.476 L226.674,188.113 z" fill="#000000"/>
        </g>
        <g>
          <path d="M245.528,170.245 L241.26,170.245 L241.26,175.957 L245.528,175.957 C247.516,175.957 248.817,174.773 248.817,173.1 C248.817,171.429 247.516,170.245 245.528,170.245 M249.045,188.111 L244.518,179.481 L241.26,179.481 L241.26,188.111 L236.732,188.111 L236.732,166.476 L245.822,166.476 C250.545,166.476 253.347,169.484 253.347,173.1 C253.347,176.14 251.359,178.024 249.112,178.785 L254.29,188.111 z" fill="#000000"/>
          <path d="M258.038,166.476 L262.565,166.476 L262.565,188.111 L258.038,188.111 z" fill="#000000"/>
          <path d="M282.276,185.834 C280.418,187.625 278.203,188.294 275.727,188.294 C273.187,188.294 271.102,187.442 269.473,185.924 C267.128,183.736 267.191,181.031 267.191,177.293 C267.191,173.557 267.128,170.851 269.473,168.665 C271.102,167.144 273.121,166.294 275.727,166.294 C281.104,166.294 283.84,169.577 284.459,173.221 L279.897,173.221 C279.377,171.184 278.041,170.062 275.727,170.062 C274.489,170.062 273.478,170.518 272.827,171.217 C271.948,172.129 271.719,173.133 271.719,177.293 C271.719,181.457 271.948,182.489 272.827,183.401 C273.478,184.101 274.489,184.525 275.727,184.525 C277.095,184.525 278.203,184.069 278.952,183.31 C279.703,182.521 279.997,181.546 279.997,180.423 L279.997,179.603 L275.727,179.603 L275.727,176.079 L284.491,176.079 L284.491,179.24 C284.491,182.369 283.905,184.254 282.276,185.834" fill="#000000"/>
          <path d="M301.465,188.111 L301.465,179.055 L293.613,179.055 L293.613,188.111 L289.085,188.111 L289.085,166.476 L293.613,166.476 L293.613,175.317 L301.465,175.317 L301.465,166.476 L305.995,166.476 L305.995,188.111 z" fill="#000000"/>
          <path d="M320.262,170.245 L320.262,188.111 L315.731,188.111 L315.731,170.245 L309.675,170.245 L309.675,166.476 L326.322,166.476 L326.322,170.245 z" fill="#000000"/>
          <path d="M336.39,188.294 C332.87,188.294 330.199,187.595 327.919,185.437 L330.85,182.703 C332.318,184.069 334.303,184.525 336.454,184.525 C339.126,184.525 340.559,183.586 340.559,181.852 C340.559,181.092 340.33,180.455 339.842,180.027 C339.386,179.634 338.863,179.42 337.789,179.269 L334.988,178.905 C332.998,178.631 331.536,178.052 330.493,177.111 C329.383,176.079 328.831,174.68 328.831,172.858 C328.831,168.999 331.892,166.294 336.909,166.294 C340.104,166.294 342.416,167.024 344.405,168.816 L341.537,171.46 C340.068,170.153 338.312,169.971 336.781,169.971 C334.368,169.971 333.198,171.217 333.198,172.706 C333.198,173.252 333.392,173.83 333.88,174.257 C334.337,174.65 335.086,174.985 336.029,175.106 L338.768,175.471 C340.882,175.745 342.218,176.291 343.199,177.141 C344.436,178.237 344.99,179.815 344.99,181.73 C344.99,185.924 341.241,188.294 336.39,188.294" fill="#000000"/>
        </g>
        <g>
          <path d="M367.484,185.835 C365.628,187.625 363.413,188.294 360.937,188.294 C358.395,188.294 356.311,187.442 354.681,185.924 C352.336,183.736 352.4,181.031 352.4,177.293 C352.4,173.557 352.336,170.852 354.681,168.663 C356.311,167.144 358.329,166.294 360.937,166.294 C366.313,166.294 369.049,169.576 369.667,173.221 L365.105,173.221 C364.585,171.187 363.25,170.064 360.937,170.064 C359.697,170.064 358.689,170.518 358.036,171.217 C357.157,172.128 356.928,173.129 356.928,177.293 C356.928,181.458 357.157,182.49 358.036,183.401 C358.689,184.1 359.697,184.525 360.937,184.525 C362.305,184.525 363.413,184.07 364.159,183.31 C364.911,182.52 365.205,181.548 365.205,180.423 L365.205,179.603 L360.937,179.603 L360.937,176.077 L369.7,176.077 L369.7,179.239 C369.7,182.369 369.113,184.255 367.484,185.835" fill="#000000"/>
          <path d="M383.09,170.244 L378.822,170.244 L378.822,175.957 L383.09,175.957 C385.076,175.957 386.379,174.773 386.379,173.1 C386.379,171.43 385.076,170.244 383.09,170.244 M386.609,188.111 L382.079,179.481 L378.822,179.481 L378.822,188.111 L374.294,188.111 L374.294,166.476 L383.384,166.476 C388.106,166.476 390.909,169.484 390.909,173.1 C390.909,176.141 388.92,178.024 386.673,178.785 L391.852,188.111 z" fill="#000000"/>
          <path d="M406.286,171.217 C405.635,170.518 404.624,170.062 403.385,170.062 C402.148,170.062 401.107,170.518 400.453,171.217 C399.573,172.127 399.345,173.129 399.345,177.295 C399.345,181.457 399.573,182.46 400.453,183.374 C401.107,184.07 402.148,184.524 403.385,184.524 C404.624,184.524 405.635,184.07 406.286,183.374 C407.166,182.46 407.426,181.457 407.426,177.295 C407.426,173.129 407.166,172.127 406.286,171.217 M409.641,185.923 C408.013,187.444 406.025,188.294 403.385,188.294 C400.747,188.294 398.728,187.444 397.097,185.923 C394.752,183.736 394.817,181.031 394.817,177.295 C394.817,173.557 394.752,170.852 397.097,168.663 C398.728,167.144 400.747,166.294 403.385,166.294 C406.025,166.294 408.013,167.144 409.641,168.663 C411.987,170.852 411.954,173.557 411.954,177.295 C411.954,181.031 411.987,183.736 409.641,185.923" fill="#000000"/>
          <path d="M424.757,188.294 C420.002,188.294 416.222,185.286 416.222,180.696 L416.222,166.476 L420.75,166.476 L420.75,180.546 C420.75,183.039 422.315,184.525 424.757,184.525 C427.2,184.525 428.797,183.039 428.797,180.546 L428.797,166.476 L433.293,166.476 L433.293,180.696 C433.293,185.286 429.514,188.294 424.757,188.294" fill="#000000"/>
          <path d="M447.107,170.244 L442.87,170.244 L442.87,176.169 L447.107,176.169 C449.16,176.169 450.462,174.985 450.462,173.221 C450.462,171.459 449.16,170.244 447.107,170.244 M447.335,179.968 L442.87,179.968 L442.87,188.111 L438.343,188.111 L438.343,166.476 L447.335,166.476 C452.123,166.476 454.99,169.545 454.99,173.221 C454.99,176.897 452.123,179.968 447.335,179.968" fill="#000000"/>
        </g>
      </g>
    </g>
    <g id="Red_logo_-_white_text">
      <g>
        <path d="M135.982,295 L36,294.987 L36.008,228 L135.99,228.013 z" fill="#0B0B09"/>
        <g>
          <path d="M53.741,244.841 C55.793,244.841 56.627,247.22 56.627,252.072 C56.627,256.894 55.826,259.303 53.741,259.303 C51.655,259.303 50.821,256.925 50.821,252.072 C50.821,247.188 51.624,244.841 53.741,244.841 M62.401,252.298 C62.401,244.487 59.13,240.182 53.741,240.182 C48.449,240.182 45.049,244.553 45.049,252.072 C45.049,255.748 45.859,258.66 47.296,260.693 L47.264,264.474 L52.17,264.474 L52.17,282.02 L57.881,282.02 L57.881,262.886 C60.722,261.164 62.401,257.485 62.401,252.298" fill="#777776"/>
          <path d="M75.312,278.122 C73.228,278.122 72.394,275.746 72.394,270.894 C72.394,266.01 73.195,263.663 75.312,263.663 C77.365,263.663 78.2,266.042 78.2,270.894 C78.2,275.714 77.397,278.122 75.312,278.122 M78.166,259.476 L78.166,240.714 L67.589,240.714 L67.549,245.921 L72.456,245.921 L72.456,259.495 C68.83,260.823 66.62,264.833 66.62,270.894 C66.62,278.447 70.019,282.816 75.312,282.816 C80.604,282.816 83.972,278.479 83.972,271.118 C83.972,264.806 81.832,260.785 78.166,259.476" fill="#D9272A"/>
          <path d="M96.333,244.841 C98.386,244.841 99.22,247.22 99.22,252.072 C99.22,256.894 98.417,259.303 96.333,259.303 C94.247,259.303 93.414,256.925 93.414,252.072 C93.414,247.188 94.217,244.841 96.333,244.841 M104.993,252.298 C104.993,244.487 101.723,240.182 96.333,240.182 C91.04,240.182 87.642,244.553 87.642,252.072 C87.642,255.748 88.451,258.66 89.887,260.693 L89.856,264.474 L94.763,264.474 L94.763,282.02 L100.472,282.02 L100.472,262.886 C103.314,261.164 104.993,257.485 104.993,252.298" fill="#777776"/>
          <path d="M117.905,278.122 C115.82,278.122 114.985,275.746 114.985,270.894 C114.985,266.01 115.788,263.663 117.905,263.663 C119.957,263.663 120.791,266.042 120.791,270.894 C120.791,275.714 119.99,278.122 117.905,278.122 M120.759,259.476 L120.759,240.714 L110.181,240.714 L110.141,245.921 L115.05,245.921 L115.05,259.495 C111.424,260.823 109.213,264.833 109.213,270.894 C109.213,278.447 112.612,282.816 117.905,282.816 C123.198,282.816 126.566,278.479 126.566,271.118 C126.566,264.806 124.425,260.785 120.759,259.476" fill="#777776"/>
        </g>
      </g>
      <g>
        <g>
          <path d="M158.456,255.217 C157.805,254.517 156.797,254.06 155.558,254.06 C154.318,254.06 153.278,254.517 152.626,255.217 C151.747,256.128 151.518,257.131 151.518,261.295 C151.518,265.457 151.747,266.459 152.626,267.371 C153.278,268.071 154.318,268.525 155.558,268.525 C156.797,268.525 157.805,268.071 158.456,267.371 C159.338,266.459 159.597,265.457 159.597,261.295 C159.597,257.131 159.338,256.128 158.456,255.217 M161.814,269.923 C160.185,271.444 158.196,272.294 155.558,272.294 C152.919,272.294 150.899,271.444 149.271,269.923 C146.925,267.736 146.99,265.031 146.99,261.295 C146.99,257.556 146.925,254.852 149.271,252.665 C150.899,251.145 152.919,250.294 155.558,250.294 C158.196,250.294 160.185,251.145 161.814,252.665 C164.158,254.852 164.127,257.556 164.127,261.295 C164.127,265.031 164.158,267.736 161.814,269.923" fill="#FFFFFF"/>
          <path d="M177.515,254.245 L173.28,254.245 L173.28,260.171 L177.515,260.171 C179.568,260.171 180.872,258.985 180.872,257.221 C180.872,255.46 179.568,254.245 177.515,254.245 M177.743,263.969 L173.28,263.969 L173.28,272.113 L168.752,272.113 L168.752,250.479 L177.743,250.479 C182.531,250.479 185.4,253.545 185.4,257.221 C185.4,260.899 182.531,263.969 177.743,263.969" fill="#FFFFFF"/>
          <path d="M189.212,272.113 L189.212,250.476 L204.491,250.476 L204.491,254.245 L193.74,254.245 L193.74,259.316 L202.894,259.316 L202.894,263.086 L193.74,263.086 L193.74,268.344 L204.491,268.344 L204.491,272.113 z" fill="#FFFFFF"/>
          <path d="M222.636,272.113 L213.451,258.831 L213.451,272.113 L208.922,272.113 L208.922,250.476 L212.961,250.476 L222.148,263.727 L222.148,250.476 L226.674,250.476 L226.674,272.113 z" fill="#FFFFFF"/>
        </g>
        <g>
          <path d="M245.528,254.245 L241.26,254.245 L241.26,259.957 L245.528,259.957 C247.516,259.957 248.817,258.773 248.817,257.1 C248.817,255.429 247.516,254.245 245.528,254.245 M249.045,272.111 L244.518,263.481 L241.26,263.481 L241.26,272.111 L236.732,272.111 L236.732,250.476 L245.822,250.476 C250.545,250.476 253.347,253.484 253.347,257.1 C253.347,260.14 251.359,262.024 249.112,262.785 L254.29,272.111 z" fill="#FFFFFF"/>
          <path d="M258.038,250.476 L262.565,250.476 L262.565,272.111 L258.038,272.111 z" fill="#FFFFFF"/>
          <path d="M282.276,269.834 C280.418,271.625 278.203,272.294 275.727,272.294 C273.187,272.294 271.102,271.442 269.473,269.924 C267.128,267.736 267.191,265.031 267.191,261.293 C267.191,257.556 267.128,254.85 269.473,252.665 C271.102,251.144 273.121,250.294 275.727,250.294 C281.104,250.294 283.84,253.577 284.459,257.221 L279.897,257.221 C279.377,255.184 278.041,254.062 275.727,254.062 C274.489,254.062 273.478,254.518 272.827,255.217 C271.948,256.129 271.719,257.133 271.719,261.293 C271.719,265.457 271.948,266.488 272.827,267.401 C273.478,268.101 274.489,268.525 275.727,268.525 C277.095,268.525 278.203,268.069 278.952,267.31 C279.703,266.521 279.997,265.546 279.997,264.423 L279.997,263.603 L275.727,263.603 L275.727,260.079 L284.491,260.079 L284.491,263.24 C284.491,266.369 283.905,268.254 282.276,269.834" fill="#FFFFFF"/>
          <path d="M301.465,272.111 L301.465,263.055 L293.613,263.055 L293.613,272.111 L289.085,272.111 L289.085,250.476 L293.613,250.476 L293.613,259.316 L301.465,259.316 L301.465,250.476 L305.995,250.476 L305.995,272.111 z" fill="#FFFFFF"/>
          <path d="M320.262,254.245 L320.262,272.111 L315.731,272.111 L315.731,254.245 L309.675,254.245 L309.675,250.476 L326.322,250.476 L326.322,254.245 z" fill="#FFFFFF"/>
          <path d="M336.39,272.294 C332.87,272.294 330.199,271.595 327.919,269.436 L330.85,266.703 C332.318,268.069 334.303,268.525 336.454,268.525 C339.126,268.525 340.559,267.586 340.559,265.852 C340.559,265.092 340.33,264.455 339.842,264.027 C339.386,263.634 338.863,263.42 337.789,263.269 L334.988,262.905 C332.998,262.631 331.536,262.052 330.493,261.111 C329.383,260.079 328.831,258.68 328.831,256.858 C328.831,252.999 331.892,250.294 336.909,250.294 C340.104,250.294 342.416,251.024 344.405,252.816 L341.537,255.46 C340.068,254.153 338.312,253.97 336.781,253.97 C334.368,253.97 333.198,255.217 333.198,256.706 C333.198,257.252 333.392,257.83 333.88,258.257 C334.337,258.65 335.086,258.985 336.029,259.106 L338.768,259.47 C340.882,259.745 342.218,260.291 343.199,261.141 C344.436,262.237 344.99,263.815 344.99,265.73 C344.99,269.924 341.241,272.294 336.39,272.294" fill="#FFFFFF"/>
        </g>
        <g>
          <path d="M367.484,269.835 C365.628,271.625 363.413,272.294 360.937,272.294 C358.395,272.294 356.311,271.442 354.681,269.924 C352.336,267.736 352.4,265.031 352.4,261.293 C352.4,257.556 352.336,254.852 354.681,252.663 C356.311,251.144 358.329,250.294 360.937,250.294 C366.313,250.294 369.049,253.576 369.667,257.221 L365.105,257.221 C364.585,255.187 363.25,254.064 360.937,254.064 C359.697,254.064 358.689,254.518 358.036,255.217 C357.157,256.128 356.928,257.129 356.928,261.293 C356.928,265.458 357.157,266.49 358.036,267.401 C358.689,268.1 359.697,268.525 360.937,268.525 C362.305,268.525 363.413,268.07 364.159,267.31 C364.911,266.52 365.205,265.548 365.205,264.423 L365.205,263.603 L360.937,263.603 L360.937,260.077 L369.7,260.077 L369.7,263.239 C369.7,266.369 369.113,268.255 367.484,269.835" fill="#FFFFFF"/>
          <path d="M383.09,254.244 L378.822,254.244 L378.822,259.957 L383.09,259.957 C385.076,259.957 386.379,258.773 386.379,257.1 C386.379,255.43 385.076,254.244 383.09,254.244 M386.609,272.111 L382.079,263.481 L378.822,263.481 L378.822,272.111 L374.294,272.111 L374.294,250.476 L383.384,250.476 C388.106,250.476 390.909,253.484 390.909,257.1 C390.909,260.141 388.92,262.024 386.673,262.785 L391.852,272.111 z" fill="#FFFFFF"/>
          <path d="M406.286,255.217 C405.635,254.518 404.624,254.062 403.385,254.062 C402.148,254.062 401.107,254.518 400.453,255.217 C399.573,256.126 399.345,257.129 399.345,261.295 C399.345,265.457 399.573,266.46 400.453,267.374 C401.107,268.07 402.148,268.524 403.385,268.524 C404.624,268.524 405.635,268.07 406.286,267.374 C407.166,266.46 407.426,265.457 407.426,261.295 C407.426,257.129 407.166,256.126 406.286,255.217 M409.641,269.923 C408.013,271.444 406.025,272.294 403.385,272.294 C400.747,272.294 398.728,271.444 397.097,269.923 C394.752,267.736 394.817,265.031 394.817,261.295 C394.817,257.556 394.752,254.852 397.097,252.663 C398.728,251.144 400.747,250.294 403.385,250.294 C406.025,250.294 408.013,251.144 409.641,252.663 C411.987,254.852 411.954,257.556 411.954,261.295 C411.954,265.031 411.987,267.736 409.641,269.923" fill="#FFFFFF"/>
          <path d="M424.757,272.294 C420.002,272.294 416.222,269.286 416.222,264.696 L416.222,250.476 L420.75,250.476 L420.75,264.546 C420.75,267.038 422.315,268.525 424.757,268.525 C427.2,268.525 428.797,267.038 428.797,264.546 L428.797,250.476 L433.293,250.476 L433.293,264.696 C433.293,269.286 429.514,272.294 424.757,272.294" fill="#FFFFFF"/>
          <path d="M447.107,254.244 L442.87,254.244 L442.87,260.169 L447.107,260.169 C449.16,260.169 450.462,258.985 450.462,257.221 C450.462,255.459 449.16,254.244 447.107,254.244 M447.335,263.968 L442.87,263.968 L442.87,272.111 L438.343,272.111 L438.343,250.476 L447.335,250.476 C452.123,250.476 454.99,253.545 454.99,257.221 C454.99,260.897 452.123,263.968 447.335,263.968" fill="#FFFFFF"/>
        </g>
      </g>
    </g>
    <g id="Full_colour">
      <path d="M134,50 L471,50 L471,117 L134,117 L134,50 z" fill="#DA3A2F"/>
      <g>
        <path d="M134.992,116.816 L35.01,116.804 L35.018,49.816 L135,49.829 z" fill="#0B0B09"/>
        <g>
          <path d="M52.751,66.658 C54.804,66.658 55.637,69.036 55.637,73.889 C55.637,78.71 54.836,81.12 52.751,81.12 C50.665,81.12 49.831,78.741 49.831,73.889 C49.831,69.004 50.634,66.658 52.751,66.658 M61.411,74.114 C61.411,66.304 58.141,61.999 52.751,61.999 C47.459,61.999 44.059,66.369 44.059,73.889 C44.059,77.565 44.87,80.477 46.306,82.51 L46.274,86.29 L51.181,86.29 L51.181,103.836 L56.891,103.836 L56.891,84.703 C59.732,82.98 61.411,79.302 61.411,74.114" fill="#777776"/>
          <path d="M74.323,99.939 C72.238,99.939 71.404,97.563 71.404,92.711 C71.404,87.826 72.206,85.48 74.323,85.48 C76.375,85.48 77.21,87.858 77.21,92.711 C77.21,97.531 76.407,99.939 74.323,99.939 M77.176,81.292 L77.176,62.531 L66.6,62.531 L66.56,67.738 L71.466,67.738 L71.466,81.312 C67.84,82.64 65.631,86.65 65.631,92.711 C65.631,100.264 69.03,104.633 74.323,104.633 C79.614,104.633 82.982,100.296 82.982,92.935 C82.982,86.623 80.842,82.601 77.176,81.292" fill="#D9272A"/>
          <path d="M95.344,66.658 C97.396,66.658 98.23,69.036 98.23,73.889 C98.23,78.71 97.427,81.12 95.344,81.12 C93.258,81.12 92.424,78.741 92.424,73.889 C92.424,69.004 93.227,66.658 95.344,66.658 M104.004,74.114 C104.004,66.304 100.733,61.999 95.344,61.999 C90.051,61.999 86.652,66.369 86.652,73.889 C86.652,77.565 87.461,80.477 88.898,82.51 L88.867,86.29 L93.773,86.29 L93.773,103.836 L99.482,103.836 L99.482,84.703 C102.325,82.98 104.004,79.302 104.004,74.114" fill="#777776"/>
          <path d="M116.915,99.939 C114.83,99.939 113.996,97.563 113.996,92.711 C113.996,87.826 114.798,85.48 116.915,85.48 C118.968,85.48 119.801,87.858 119.801,92.711 C119.801,97.531 119,99.939 116.915,99.939 M119.769,81.292 L119.769,62.531 L109.191,62.531 L109.151,67.738 L114.06,67.738 L114.06,81.312 C110.434,82.64 108.223,86.65 108.223,92.711 C108.223,100.264 111.622,104.633 116.915,104.633 C122.208,104.633 125.576,100.296 125.576,92.935 C125.576,86.623 123.435,82.601 119.769,81.292" fill="#777776"/>
        </g>
      </g>
      <g>
        <g>
          <path d="M157.466,77.033 C156.815,76.333 155.807,75.876 154.568,75.876 C153.329,75.876 152.288,76.333 151.636,77.033 C150.757,77.944 150.528,78.947 150.528,83.112 C150.528,87.274 150.757,88.275 151.636,89.188 C152.288,89.888 153.329,90.342 154.568,90.342 C155.807,90.342 156.815,89.888 157.466,89.188 C158.349,88.275 158.607,87.274 158.607,83.112 C158.607,78.947 158.349,77.944 157.466,77.033 M160.824,91.74 C159.195,93.26 157.206,94.11 154.568,94.11 C151.93,94.11 149.91,93.26 148.282,91.74 C145.935,89.552 146,86.848 146,83.112 C146,79.373 145.935,76.668 148.282,74.481 C149.91,72.962 151.93,72.11 154.568,72.11 C157.206,72.11 159.195,72.962 160.824,74.481 C163.168,76.668 163.137,79.373 163.137,83.112 C163.137,86.848 163.168,89.552 160.824,91.74" fill="#FFFFFF"/>
          <path d="M176.526,76.061 L172.29,76.061 L172.29,81.987 L176.526,81.987 C178.578,81.987 179.883,80.802 179.883,79.038 C179.883,77.276 178.578,76.061 176.526,76.061 M176.754,85.785 L172.29,85.785 L172.29,93.929 L167.762,93.929 L167.762,72.295 L176.754,72.295 C181.542,72.295 184.411,75.361 184.411,79.038 C184.411,82.716 181.542,85.785 176.754,85.785" fill="#FFFFFF"/>
          <path d="M188.222,93.929 L188.222,72.293 L203.502,72.293 L203.502,76.061 L192.75,76.061 L192.75,81.133 L201.905,81.133 L201.905,84.903 L192.75,84.903 L192.75,90.161 L203.502,90.161 L203.502,93.929 z" fill="#FFFFFF"/>
          <path d="M221.646,93.929 L212.461,80.648 L212.461,93.929 L207.933,93.929 L207.933,72.293 L211.972,72.293 L221.159,85.543 L221.159,72.293 L225.684,72.293 L225.684,93.929 z" fill="#FFFFFF"/>
        </g>
        <g>
          <path d="M244.538,76.061 L240.27,76.061 L240.27,81.774 L244.538,81.774 C246.526,81.774 247.828,80.589 247.828,78.916 C247.828,77.245 246.526,76.061 244.538,76.061 M248.055,93.928 L243.529,85.297 L240.27,85.297 L240.27,93.928 L235.742,93.928 L235.742,72.293 L244.832,72.293 C249.555,72.293 252.357,75.3 252.357,78.916 C252.357,81.956 250.369,83.84 248.123,84.601 L253.301,93.928 z" fill="#FFFFFF"/>
          <path d="M257.048,72.293 L261.575,72.293 L261.575,93.928 L257.048,93.928 z" fill="#FFFFFF"/>
          <path d="M281.286,91.65 C279.429,93.441 277.213,94.11 274.738,94.11 C272.197,94.11 270.112,93.259 268.483,91.741 C266.138,89.552 266.202,86.848 266.202,83.109 C266.202,79.373 266.138,76.667 268.483,74.481 C270.112,72.961 272.131,72.11 274.738,72.11 C280.115,72.11 282.85,75.394 283.469,79.038 L278.907,79.038 C278.387,77.001 277.051,75.879 274.738,75.879 C273.499,75.879 272.488,76.334 271.837,77.033 C270.959,77.946 270.73,78.95 270.73,83.109 C270.73,87.274 270.959,88.305 271.837,89.217 C272.488,89.917 273.499,90.342 274.738,90.342 C276.105,90.342 277.213,89.885 277.963,89.127 C278.713,88.337 279.007,87.363 279.007,86.24 L279.007,85.419 L274.738,85.419 L274.738,81.895 L283.501,81.895 L283.501,85.057 C283.501,88.186 282.915,90.07 281.286,91.65" fill="#FFFFFF"/>
          <path d="M300.475,93.928 L300.475,84.872 L292.624,84.872 L292.624,93.928 L288.095,93.928 L288.095,72.293 L292.624,72.293 L292.624,81.133 L300.475,81.133 L300.475,72.293 L305.006,72.293 L305.006,93.928 z" fill="#FFFFFF"/>
          <path d="M319.272,76.061 L319.272,93.928 L314.741,93.928 L314.741,76.061 L308.685,76.061 L308.685,72.293 L325.332,72.293 L325.332,76.061 z" fill="#FFFFFF"/>
          <path d="M335.401,94.11 C331.881,94.11 329.21,93.412 326.929,91.253 L329.861,88.52 C331.328,89.885 333.313,90.342 335.464,90.342 C338.136,90.342 339.569,89.402 339.569,87.668 C339.569,86.909 339.34,86.272 338.852,85.844 C338.397,85.45 337.874,85.237 336.8,85.085 L333.998,84.722 C332.009,84.447 330.546,83.869 329.503,82.928 C328.393,81.895 327.842,80.496 327.842,78.674 C327.842,74.815 330.902,72.11 335.92,72.11 C339.115,72.11 341.426,72.84 343.415,74.633 L340.547,77.276 C339.079,75.969 337.322,75.787 335.791,75.787 C333.378,75.787 332.208,77.033 332.208,78.523 C332.208,79.069 332.402,79.646 332.89,80.073 C333.347,80.466 334.096,80.802 335.04,80.922 L337.778,81.287 C339.893,81.561 341.228,82.107 342.209,82.958 C343.446,84.054 344,85.631 344,87.547 C344,91.741 340.251,94.11 335.401,94.11" fill="#FFFFFF"/>
        </g>
        <g>
          <path d="M366.494,91.652 C364.639,93.441 362.423,94.11 359.947,94.11 C357.406,94.11 355.321,93.259 353.692,91.741 C351.347,89.552 351.41,86.848 351.41,83.109 C351.41,79.373 351.347,76.668 353.692,74.48 C355.321,72.961 357.34,72.11 359.947,72.11 C365.323,72.11 368.059,75.392 368.678,79.038 L364.116,79.038 C363.596,77.003 362.26,75.88 359.947,75.88 C358.708,75.88 357.7,76.334 357.046,77.033 C356.167,77.944 355.938,78.946 355.938,83.109 C355.938,87.275 356.167,88.306 357.046,89.217 C357.7,89.916 358.708,90.342 359.947,90.342 C361.315,90.342 362.423,89.886 363.17,89.127 C363.922,88.336 364.215,87.364 364.215,86.24 L364.215,85.419 L359.947,85.419 L359.947,81.894 L368.71,81.894 L368.71,85.055 C368.71,88.186 368.124,90.071 366.494,91.652" fill="#FFFFFF"/>
          <path d="M382.1,76.06 L377.832,76.06 L377.832,81.774 L382.1,81.774 C384.087,81.774 385.39,80.589 385.39,78.916 C385.39,77.247 384.087,76.06 382.1,76.06 M385.619,93.928 L381.089,85.297 L377.832,85.297 L377.832,93.928 L373.304,93.928 L373.304,72.293 L382.394,72.293 C387.116,72.293 389.919,75.3 389.919,78.916 C389.919,81.957 387.93,83.84 385.684,84.601 L390.863,93.928 z" fill="#FFFFFF"/>
          <path d="M405.296,77.033 C404.645,76.334 403.634,75.879 402.396,75.879 C401.159,75.879 400.117,76.334 399.463,77.033 C398.583,77.943 398.356,78.946 398.356,83.112 C398.356,87.274 398.583,88.276 399.463,89.19 C400.117,89.886 401.159,90.341 402.396,90.341 C403.634,90.341 404.645,89.886 405.296,89.19 C406.176,88.276 406.436,87.274 406.436,83.112 C406.436,78.946 406.176,77.943 405.296,77.033 M408.652,91.74 C407.024,93.26 405.036,94.11 402.396,94.11 C399.757,94.11 397.738,93.26 396.108,91.74 C393.763,89.552 393.827,86.848 393.827,83.112 C393.827,79.373 393.763,76.668 396.108,74.48 C397.738,72.961 399.757,72.11 402.396,72.11 C405.036,72.11 407.024,72.961 408.652,74.48 C410.998,76.668 410.964,79.373 410.964,83.112 C410.964,86.848 410.998,89.552 408.652,91.74" fill="#FFFFFF"/>
          <path d="M423.767,94.11 C419.012,94.11 415.232,91.103 415.232,86.513 L415.232,72.293 L419.76,72.293 L419.76,86.362 C419.76,88.855 421.325,90.342 423.767,90.342 C426.21,90.342 427.807,88.855 427.807,86.362 L427.807,72.293 L432.303,72.293 L432.303,86.513 C432.303,91.103 428.524,94.11 423.767,94.11" fill="#FFFFFF"/>
          <path d="M446.118,76.06 L441.881,76.06 L441.881,81.986 L446.118,81.986 C448.17,81.986 449.472,80.802 449.472,79.038 C449.472,77.275 448.17,76.06 446.118,76.06 M446.345,85.784 L441.881,85.784 L441.881,93.928 L437.354,93.928 L437.354,72.293 L446.345,72.293 C451.134,72.293 454,75.361 454,79.038 C454,82.713 451.134,85.784 446.345,85.784" fill="#FFFFFF"/>
        </g>
      </g>
    </g>
  </g>
</svg>
