<?xml version="1.0" encoding="UTF-8"?>
<!DOCTYPE svg PUBLIC "-//W3C//DTD SVG 1.1//EN" "http://www.w3.org/Graphics/SVG/1.1/DTD/svg11.dtd">
<svg version="1.1" xmlns="http://www.w3.org/2000/svg" xmlns:xlink="http://www.w3.org/1999/xlink" x="0" y="0" width="80" height="80" viewBox="0, 0, 80, 80">
  <g id="openrightsgroup">
    <path d="M0,0 L80,0 L80,80 L0,80 L0,0 z" fill="#000000" id="background"/>
    <path d="M18.97,57.72 Q14.18,57.72 12.025,55.715 Q9.87,53.7 9.785,49.035 Q9.695,44.8 9.7,39.98 Q9.7,35.16 9.785,30.925 Q9.87,26.3 12.025,24.29 Q14.18,22.28 18.97,22.28 Q23.76,22.28 25.85,24.29 Q27.94,26.3 28.115,30.925 Q28.29,35.245 28.29,40.02 Q28.29,44.8 28.115,49.035 Q27.94,53.705 25.85,55.715 Q23.76,57.725 18.97,57.72 z" fill="#FFFFFF" id="O"/>
    <path d="M30.88,57.29 L30.88,22.71 L39.28,22.71 Q44.155,22.71 46.31,24.675 Q48.465,26.645 48.64,31.14 Q48.685,32.35 48.705,33.255 Q48.73,34.165 48.705,35.07 Q48.685,35.98 48.64,37.19 C48.645,38.77 48.32,40.34 47.685,41.79 C47.12,42.97 46.185,43.93 45.025,44.535 L49.12,57.285 L42.2,57.285 L38.89,45.615 L37.41,45.615 L37.41,57.29 z" fill="#FFFFFF" id="R"/>
    <path d="M61.055,57.725 C59.265,57.795 57.48,57.49 55.81,56.84 C54.535,56.295 53.505,55.3 52.91,54.05 C52.23,52.465 51.875,50.76 51.865,49.035 Q51.82,47.22 51.78,44.91 Q51.735,42.595 51.735,40.11 Q51.735,37.625 51.78,35.33 Q51.82,33.04 51.865,31.31 C51.87,29.5 52.235,27.71 52.93,26.035 C53.515,24.75 54.555,23.725 55.85,23.16 C57.505,22.51 59.275,22.21 61.05,22.275 Q65.62,22.275 67.71,24.285 Q69.8,26.295 70.105,30.92 Q70.19,31.915 70.19,33.3 Q70.19,34.68 70.105,35.675 L63.575,35.675 Q63.66,34.465 63.66,32.695 Q63.66,30.92 63.575,29.71 Q63.445,27.55 61.05,27.55 Q58.525,27.55 58.395,29.71 Q58.22,32.735 58.155,36.365 Q58.09,40 58.155,43.605 Q58.22,47.215 58.395,50.24 Q58.525,52.44 61.05,52.44 C61.76,52.48 62.465,52.28 63.05,51.88 C63.555,51.48 63.855,50.88 63.875,50.24 Q63.92,49.72 63.94,48.92 Q63.965,48.12 63.94,47.3 Q63.92,46.48 63.875,46 L61.48,46 L61.48,40.38 L70.23,40.38 Q70.32,42.37 70.295,44.7 Q70.275,47.035 70.19,49.025 Q69.97,53.695 67.835,55.705 Q65.705,57.715 61.055,57.725 z" fill="#FFFFFF" id="G"/>
  </g>
</svg>
